<?xml version="1.0" encoding="UTF-8" standalone="no"?>
<!-- Created with Inkscape (http://www.inkscape.org/) -->

<svg
   version="1.1"
   id="svg531"
   width="1540.286"
   height="188.26068"
   viewBox="0 0 1540.286 188.26068"
   sodipodi:docname="header2.1.svg"
   inkscape:version="1.2.2 (b0a8486541, 2022-12-01)"
   xmlns:inkscape="http://www.inkscape.org/namespaces/inkscape"
   xmlns:sodipodi="http://sodipodi.sourceforge.net/DTD/sodipodi-0.dtd"
   xmlns="http://www.w3.org/2000/svg"
   xmlns:svg="http://www.w3.org/2000/svg">
  <defs
     id="defs535" />
  <sodipodi:namedview
     id="namedview533"
     pagecolor="#ffffff"
     bordercolor="#000000"
     borderopacity="0.25"
     inkscape:showpageshadow="2"
     inkscape:pageopacity="0.0"
     inkscape:pagecheckerboard="0"
     inkscape:deskcolor="#d1d1d1"
     showgrid="false"
     inkscape:zoom="0.60559829"
     inkscape:cx="811.5941"
     inkscape:cy="324.47252"
     inkscape:window-width="1920"
     inkscape:window-height="1135"
     inkscape:window-x="0"
     inkscape:window-y="0"
     inkscape:window-maximized="1"
     inkscape:current-layer="g537" />
  <g
     inkscape:groupmode="layer"
     inkscape:label="Image"
     id="g537"
     transform="translate(1.7970384,-300.34435)">
    <path
       style="fill:#000000;stroke-width:0.862411"
       d="m 89.053265,488.21785 c -0.727597,-0.87131 5.767641,-3.10933 9.179511,-3.1629 4.131974,-0.0646 16.382624,-2.58479 16.048584,-3.30111 -0.16158,-0.34648 1.05954,-0.92785 2.7136,-1.29207 6.27675,-1.38182 28.56282,-5.95305 40.59981,-8.32764 18.53794,-3.6571 20.89598,-4.27971 20.33151,-5.36833 -0.27577,-0.53189 0.20278,-0.95806 1.07578,-0.95806 0.86489,0 13.88252,-2.14445 28.9281,-4.76538 36.34421,-6.3312 62.65008,-9.92345 92.51574,-12.63356 2.75677,-0.25009 6.36565,-0.61045 8.01971,-0.80068 1.65407,-0.1903 5.71404,-0.51475 9.02218,-0.72108 3.30813,-0.20632 11.20254,-0.863 17.54312,-1.45914 6.34059,-0.59621 19.19719,-1.80057 28.57023,-2.67626 9.37304,-0.87578 17.22985,-1.72215 17.45958,-1.88086 0.76317,-0.52713 -4.59589,-0.29966 -18.11581,0.76886 -7.35805,0.58152 -20.59601,1.42367 -29.4177,1.87143 -42.5779,2.16093 -74.3143,4.41266 -90.72299,6.43701 -33.95047,4.18853 -96.10718,13.09689 -129.81911,18.60582 -8.82168,1.44163 -18.520532,2.87977 -21.552979,3.19592 -3.032457,0.31612 -8.671319,1.13521 -12.530808,1.82008 -22.398848,3.97486 -22.692058,4.02404 -39.597332,6.64683 -6.891941,1.06918 -15.011901,2.41711 -18.044355,2.99536 -3.032454,0.57826 -8.671314,1.58742 -12.530801,2.24268 -3.859487,0.65527 -7.80668983,1.36626 -8.77156133,1.58002 -1.24763667,0.27643 -1.75431207,-0.026 -1.75431207,-1.04805 0,-1.05932 0.89614267,-1.5444 3.4113253,-1.84651 7.4175131,-0.89082 33.6233981,-6.67108 33.0978771,-7.30038 -0.307466,-0.36813 -1.091744,-0.44805 -1.742845,-0.17754 -0.779606,0.324 -0.841528,0.24676 -0.181345,-0.22606 0.551355,-0.39486 5.513553,-1.47465 11.027105,-2.39953 5.513553,-0.92482 12.731295,-2.13497 16.039426,-2.6891 3.308132,-0.55422 9.623656,-1.54432 14.034498,-2.20033 4.410842,-0.65601 12.30525,-1.99244 17.543128,-2.96985 10.785169,-2.01255 38.206799,-6.49369 77.162989,-12.60967 23.65893,-3.71436 29.73776,-4.82427 26.42116,-4.82427 -2.57951,0 -22.4232,2.42986 -36.75731,4.50095 -8.73205,1.26164 -16.13775,2.10052 -16.45711,1.86415 -0.31938,-0.23637 0.0584,-0.44589 0.83948,-0.46556 0.78109,-0.02 5.25458,-0.66194 9.9411,-1.42715 8.93707,-1.4593 7.20271,-2.06248 -2.11871,-0.73681 -15.72619,2.23644 -52.430064,6.63243 -58.530374,7.00998 -3.859488,0.23891 -9.154278,0.60075 -11.766222,0.80411 l -4.748983,0.3697 2.521528,-1.86624 c 1.94437,-1.43896 5.555349,-2.39902 15.776078,-4.19432 7.290013,-1.28049 27.238943,-4.90902 44.330953,-8.06345 36.50492,-6.73703 54.56567,-9.90179 67.66633,-11.85699 23.37797,-3.48904 84.36991,-13.99602 85.20945,-14.67889 0.27568,-0.22421 -1.07764,-0.17561 -3.00739,0.1081 -1.92974,0.28372 -8.01971,0.80714 -13.53327,1.16319 -14.02983,0.90605 -56.82903,5.53534 -75.18481,8.1323 -5.51355,0.78006 -17.01682,2.11716 -25.56283,2.97126 -8.54601,0.85419 -18.24485,1.87329 -21.55298,2.26465 -5.25366,0.62166 -12.02614,1.08395 -38.97476,2.66047 -3.2414,0.18963 -14.744674,1.52924 -25.562841,2.97689 -10.818164,1.44771 -22.601599,2.98299 -26.185408,3.41189 -3.583809,0.42883 -7.418235,1.04841 -8.520945,1.37687 -1.102711,0.32837 -12.154877,1.81096 -24.56037,3.29458 -12.405495,1.48362 -24.2436027,2.97467 -26.3069052,3.31351 -7.1555084,1.17506 -2.79037823,-0.49146 5.7217452,-2.18446 9.575538,-1.90444 11.746694,-3.37219 2.791422,-1.887 -11.8264213,1.96135 -12.2801864,1.97694 -12.2801864,0.42156 0,-1.76541 0.6280236,-2.05224 8.3288024,-3.80421 l 6.206927,-1.41219 -5.921325,0.43773 c -3.2567249,0.24077 -6.52726453,0.60981 -7.26786423,0.82013 C -1.5757148,444.3878 -1.7970384,290.41659 -1.7970384,300.85179 v 0 H 768.09769 1537.9923 l -0.253,17.58689 -0.2528,9.62426 -22.5554,5.47985 c -27.6445,6.71628 -48.8446,11.54294 -77.6909,17.68799 -12.1299,2.58398 -26.7909,5.72966 -32.5802,6.99041 -23.0058,5.01006 -107.709,20.84191 -141.1675,26.38556 -4.0361,0.6687 -7.1591,1.34852 -6.9401,1.51071 0.445,0.32933 16.3079,-2.07412 54.5629,-8.26711 1.5519,-0.25129 4.9345,-0.73888 7.5168,-1.08365 2.5822,-0.34469 5.6323,-0.99804 6.778,-1.4518 1.1456,-0.45376 2.6417,-0.75773 3.3246,-0.67545 0.683,0.0823 2.4937,-0.23282 4.0238,-0.70008 1.5302,-0.46733 5.7799,-1.20406 9.4439,-1.63728 3.6641,-0.43321 7.0307,-0.95642 7.4817,-1.16267 0.4509,-0.20625 2.9678,-0.56675 5.593,-0.80105 7.3593,-0.65689 71.9463,-13.31569 79.4568,-15.57327 0.8271,-0.24863 2.1804,-0.51572 3.0074,-0.59364 0.8271,-0.0779 4.8871,-1.005 9.0223,-2.06023 16.1247,-4.11493 27.245,-6.57405 28.3828,-6.27654 1.2213,0.31934 -5.6322,2.74906 -7.7542,2.74906 -0.6496,0 -1.6094,0.2909 -2.1332,0.64651 -0.5238,0.35561 -3.659,1.25251 -6.9672,1.99317 -3.3081,0.74067 -7.5935,1.84511 -9.5234,2.45437 -1.9297,0.60919 -4.5414,1.22781 -5.8037,1.37471 -1.2623,0.14697 -3.1393,0.89179 -4.1707,1.6553 -1.0317,0.76344 -4.5099,1.8126 -7.7296,2.33135 -5.3023,0.8544 -5.5705,0.98564 -2.8465,1.39326 3.5711,0.53434 6.0684,-0.12063 -22.5554,5.91529 -28.1766,5.94162 -51.6081,10.17785 -84.207,15.22399 -14.6109,2.2616 -28.1965,4.44509 -30.1902,4.85211 -1.9937,0.40693 -5.1514,0.74488 -7.0172,0.7509 -1.8659,0.006 -6.3246,0.53492 -9.9084,1.17534 -14.4984,2.59073 -44.1803,6.11072 -89.7205,10.64001 -43.3365,4.31006 -45.7523,4.51951 -46.7687,4.05462 -0.5149,-0.23556 -1.5011,-0.0812 -2.1915,0.34284 -0.6904,0.42408 -2.1369,0.74763 -3.2142,0.71906 -2.544,-0.0675 -9.7277,0.46557 -27.0203,2.00529 -7.719,0.68724 -15.5719,1.22046 -17.4509,1.18493 -1.879,-0.0357 -7.5178,0.25996 -12.5308,0.65681 -10.3864,0.82222 -51.1942,3.49373 -54.2253,3.54989 -1.1027,0.0207 -6.516,0.38305 -12.0295,0.80588 -11.49348,0.88141 -22.19527,1.04974 -21.22798,0.33393 0.36238,-0.26827 3.257,-0.61327 6.43241,-0.76662 3.17539,-0.15342 8.02887,-0.60178 10.78567,-0.99633 4.5979,-0.65816 16.566,-1.71933 29.0715,-2.57767 2.7568,-0.18919 7.0423,-0.67128 9.5234,-1.07133 3.9055,-0.62975 9.4929,-1.14049 29.5586,-2.70194 2.2131,-0.1722 9.6628,-0.96324 16.5547,-1.75784 12.4291,-1.43296 12.4618,-1.44186 4.0099,-1.09724 -4.6866,0.19113 -15.0621,0.66269 -23.0567,1.0479 -27.6194,1.33101 -75.78348,2.91034 -103.25376,3.38577 -15.16228,0.26243 -32.30441,0.59197 -38.09365,0.73236 -5.78922,0.14028 -20.45026,0.45776 -32.58007,0.70549 -42.44835,0.86686 -73.39341,1.91431 -99.24395,3.35936 -53.08338,2.96717 -67.65039,3.7019 -88.21684,4.44946 -57.58485,2.09318 -80.53075,3.23301 -106.2612,5.27865 -15.43794,1.22736 -34.15896,2.71551 -41.60226,3.30698 -17.07177,1.35652 -19.38346,1.85606 -6.51601,1.40809 5.51355,-0.19201 18.82125,-0.50912 29.57269,-0.70476 l 19.54804,-0.35567 -10.02464,1.01539 c -5.51355,0.55846 -15.88905,1.4064 -23.05667,1.88426 -7.16762,0.47795 -41.45187,3.84325 -76.18724,7.47846 -34.73538,3.63519 -71.72631,7.46522 -82.20206,8.51112 -29.12718,2.90819 -75.07155,8.23461 -77.18973,8.9488 -1.01012,0.34061 5.76937,0.0104 15.03696,-0.73236 4.53967,-0.36384 4.66872,-0.33557 1.36852,0.29952 -4.17713,0.80388 -27.98199,3.08944 -35.4523,3.40386 -2.75678,0.11605 -7.04231,0.60296 -9.52342,1.08202 -11.96645,2.31052 -22.19149,3.74287 -28.57022,4.00209 -9.60891,0.39056 -61.5158,8.02169 -69.67126,10.24279 -2.36785,0.64488 -27.05823,4.49836 -44.60965,6.96229 -4.41084,0.61921 -9.65919,1.47984 -11.66301,1.91238 -2.0038,0.43261 -4.25934,0.60527 -5.01231,0.38372 -0.75296,-0.22153 -0.22886,-0.42921 1.16469,-0.4614 1.39355,-0.0319 3.42354,-0.51986 4.51108,-1.08358 1.08755,-0.56379 2.32044,-1.05784 2.73972,-1.0979 0.41929,-0.0401 2.08173,-0.57774 3.69432,-1.19494 2.75721,-1.05524 36.51163,-7.84095 44.56711,-8.9594 2.03449,-0.28245 3.4632,-0.68814 3.1749,-0.90151 -0.53976,-0.39945 -40.5948,6.19224 -44.17896,7.2704 -1.10271,0.33173 -3.13271,0.75365 -4.51109,0.93765 -4.7226,0.63041 -29.56928,5.83331 -39.59733,8.2916 -5.51355,1.35163 -13.63352,3.18321 -18.04436,4.07013 -4.410844,0.88689 -8.771197,1.77052 -9.68966,1.96349 -0.918474,0.19297 -1.914142,0.0585 -2.212615,-0.299 z M 218.24384,464.36804 c 4.41084,-0.76641 7.25826,-1.42368 6.3276,-1.4607 -1.87973,-0.0748 -15.09721,2.09519 -15.76288,2.58782 -0.72445,0.5362 1.15225,0.31199 9.43528,-1.12712 z m 114.78215,-11.91493 c 0,-0.40806 -0.19893,-0.74193 -0.44207,-0.74193 -0.24314,0 -0.72088,0.33387 -1.06163,0.74193 -0.34076,0.40806 -0.14183,0.74192 0.44206,0.74192 0.58389,0 1.06164,-0.33386 1.06164,-0.74192 z m -133.07712,-4.201 c -0.68919,-0.2058 -1.81697,-0.2058 -2.50616,0 -0.68919,0.20582 -0.12531,0.37422 1.25308,0.37422 1.37839,0 1.94228,-0.1684 1.25308,-0.37422 z M 47.052206,440.13406 c -0.333108,-0.24656 -1.197734,-0.27288 -1.921393,-0.0585 -0.799695,0.23682 -0.562152,0.41264 0.605659,0.44819 1.056768,0.0319 1.648843,-0.14312 1.315734,-0.38965 z m 35.16572,-4.69883 c 3.689421,-0.38254 11.895792,-1.07076 18.236384,-1.52934 21.66393,-1.56694 62.63758,-6.0227 75.5802,-8.21909 43.30828,-7.34951 107.66255,-15.5172 151.47792,-19.22527 26.91535,-2.27778 43.56928,-3.64989 48.61951,-4.00578 2.4811,-0.17489 -1.80444,-0.18111 -9.52341,-0.014 -13.72677,0.2972 -33.84546,1.86118 -42.3685,3.29362 -2.35117,0.39515 -5.73448,0.7161 -7.51848,0.71321 -3.2734,-0.006 -12.20538,0.84861 -43.34218,4.14321 -51.41566,5.44023 -66.90271,7.57778 -102.25135,14.11272 -10.8436,2.00461 -33.83264,4.68823 -47.1158,5.49988 -13.3887,0.81812 -42.762975,3.95283 -48.11829,5.13501 -4.070205,0.8984 -1.755224,0.93349 6.323996,0.0958 z m 238.026644,-7.21508 c -0.68919,-0.2058 -1.81697,-0.2058 -2.50617,0 -0.68919,0.20582 -0.1253,0.37423 1.25309,0.37423 1.37838,0 1.94227,-0.16841 1.25308,-0.37423 z m -129.06726,-1.74002 c 11.89883,-1.05086 42.76965,-5.02899 39.71695,-5.11816 -1.31259,-0.0385 -6.72589,0.4223 -12.02957,1.02362 -5.30366,0.60133 -17.30321,1.95824 -26.66566,3.01526 -9.36245,1.0571 -17.25685,2.11397 -17.54312,2.34856 -0.28627,0.23468 1.28394,0.22436 3.48937,-0.023 2.20542,-0.24728 8.06984,-0.80809 13.03203,-1.24635 z m 153.24862,-0.35828 c 28.34905,-2.73168 81.90618,-7.65954 101.37727,-9.3279 43.01793,-3.68604 40.4561,-3.49024 96.73778,-7.39343 11.85411,-0.82213 22.68073,-1.6533 24.05911,-1.84716 1.37839,-0.19388 16.26498,-1.36351 33.08132,-2.59927 42.29977,-3.10843 71.82244,-5.57281 97.80841,-8.16465 12.16721,-1.21357 22.73067,-2.20641 23.47431,-2.20641 0.74363,0 1.1413,-0.15603 0.88356,-0.34677 -0.52729,-0.39024 -35.65023,1.4328 -49.48764,2.56876 -4.96219,0.40732 -13.75881,1.066 -19.54805,1.46367 -5.78923,0.39775 -17.51806,1.2238 -26.06406,1.83582 -8.54601,0.61194 -22.53039,1.31313 -31.07639,1.55818 -14.00282,0.40146 -48.26504,2.89892 -65.16014,4.74973 -3.5838,0.39255 -10.35043,1.06013 -15.03695,1.4834 -9.46929,0.85536 -45.91838,4.10151 -59.14539,5.26752 -37.12634,3.27277 -55.08182,5.15377 -113.27844,11.86655 -27.95542,3.22454 -27.17629,3.84317 1.3753,1.09196 z m -103.12541,-5.57147 c 2.6826,-0.50526 2.73673,-0.56639 0.50122,-0.56639 -1.37838,0 -3.85947,0.25485 -5.51355,0.56639 -2.6826,0.50517 -2.73673,0.56631 -0.50122,0.56631 1.37838,0 3.85948,-0.25486 5.51355,-0.56631 z m 7.78817,-1.22863 c -0.6787,-0.20321 -2.03202,-0.21561 -3.0074,-0.0275 -0.97536,0.18814 -0.42006,0.35441 1.23401,0.36955 1.65407,0.0149 2.45209,-0.13882 1.77339,-0.34203 z m 4.47113,-0.70349 c -0.33312,-0.24655 -1.19774,-0.27289 -1.92139,-0.0586 -0.7997,0.23682 -0.56216,0.41267 0.60566,0.4482 1.05675,0.0319 1.64884,-0.14312 1.31573,-0.38966 z m 12.30107,-1.09946 c 2.61516,-0.4755 1.97699,-0.53019 -2.50616,-0.21472 -3.30814,0.23282 -6.69145,0.73146 -7.51848,1.10807 -1.6086,0.73265 3.66953,0.26227 10.02464,-0.89335 z m 109.53828,-4.13245 c -0.67869,-0.20321 -2.03203,-0.2156 -3.00739,-0.0275 -0.97537,0.18816 -0.42006,0.35441 1.234,0.36956 1.65406,0.0149 2.45209,-0.13882 1.77339,-0.34203 z m 8.00064,-0.74659 c -0.6892,-0.2058 -1.81697,-0.2058 -2.50617,0 -0.68919,0.20582 -0.1253,0.37422 1.25308,0.37422 1.37839,0 1.94228,-0.1684 1.25309,-0.37422 z m 48.20058,-2.29085 c 0.24817,-0.30604 -2.99573,-0.59055 -7.20871,-0.63218 -5.4917,-0.0541 -6.66679,0.0756 -4.15132,0.45872 4.89921,0.74639 10.82208,0.83683 11.36003,0.17346 z m 7.93741,-0.72218 c -1.79191,-0.16463 -3.25802,-0.61201 -3.25802,-0.99418 0,-0.38224 -0.88806,-0.69488 -1.97347,-0.69488 -1.34232,0 -1.78892,0.35589 -1.39644,1.11288 0.41184,0.79424 1.90951,1.07884 5.23149,0.99411 3.66886,-0.0935 3.96456,-0.18208 1.39644,-0.41793 z m -11.00804,-0.69193 c -0.6787,-0.2032 -2.03202,-0.21558 -3.00739,-0.0275 -0.97536,0.18816 -0.42006,0.35443 1.23401,0.36956 1.65406,0.0149 2.45208,-0.13881 1.77338,-0.34202 z m 40.17583,-1.3603 c 12.76602,-1.01584 28.65004,-2.35562 35.29782,-2.9772 6.64777,-0.62166 15.66995,-1.2991 20.04927,-1.50551 8.35906,-0.39404 47.2612,-3.31944 68.61147,-5.15963 6.89195,-0.59399 15.68857,-1.30111 19.54806,-1.57125 3.85949,-0.27021 9.04724,-0.76255 11.52833,-1.09404 3.64807,-0.48752 3.1686,-0.5379 -2.50615,-0.26316 -12.21102,0.59109 -56.95861,3.23619 -61.45256,3.63261 -2.77161,0.24445 -4.08824,0.11225 -3.68546,-0.37015 0.39888,-0.47766 -0.76658,-0.62018 -3.20636,-0.39212 -2.10815,0.19714 -7.21633,0.54674 -11.35149,0.77696 -7.22559,0.40226 -63.57847,5.34349 -81.19959,7.11987 -7.72156,0.77834 -13.08064,1.92366 -10.52588,2.24952 0.55135,0.0704 -0.80197,0.36694 -3.00739,0.65919 -8.05186,1.06696 -0.7928,0.70067 21.89993,-1.10509 z m -13.88021,-0.3821 c 4.05262,-0.66009 11.21287,-0.97481 10.44233,-0.45902 -0.22974,0.1538 -3.57545,0.46689 -7.43494,0.69585 -5.39288,0.31992 -6.08904,0.26508 -3.00739,-0.23683 z m 13.28264,-1.22995 c 0.68919,-0.20581 1.81696,-0.20581 2.50617,0 0.68919,0.2058 0.1253,0.37422 -1.25309,0.37422 -1.37838,0 -1.94227,-0.16842 -1.25308,-0.37422 z m -24.56037,1.48384 c -0.68919,-0.20581 -1.81696,-0.20581 -2.50615,0 -0.68921,0.20581 -0.12532,0.37422 1.25307,0.37422 1.37839,0 1.94227,-0.16841 1.25308,-0.37422 z m -56.62753,-5.95379 c -0.95844,-0.18571 -2.76288,-0.19245 -4.00986,-0.0149 -1.24697,0.17747 -0.4628,0.32942 1.74262,0.33765 2.20543,0.008 3.22569,-0.13704 2.26724,-0.32266 z m 11.02711,-0.74192 c -0.95845,-0.1857 -2.76289,-0.19246 -4.00987,-0.0149 -1.24697,0.17748 -0.4628,0.32941 1.74263,0.33764 2.20542,0.008 3.22568,-0.13703 2.26724,-0.32265 z m 708.22907,0.0185 c -0.6891,-0.20581 -1.8169,-0.20581 -2.5061,0 -0.6892,0.20581 -0.1253,0.37422 1.2531,0.37422 1.3784,0 1.9423,-0.16841 1.253,-0.37422 z m 110.5488,-8.37935 c -0.3259,-0.39026 -1.2547,-0.52143 -2.0641,-0.29159 -2.0722,0.58849 -1.828,1.00115 0.5925,1.00115 1.1353,0 1.7975,-0.31932 1.4716,-0.70956 z m 23.5309,-2.26073 c 10.8713,-1.42174 14.1353,-2.02931 9.5233,-1.7726 -8.3131,0.46265 -33.4249,3.82238 -29.0715,3.88946 1.6541,0.0252 10.4507,-0.92711 19.5482,-2.11686 z m 19.7778,-2.67145 c -0.3331,-0.24654 -1.1978,-0.27287 -1.9215,-0.0585 -0.7997,0.23682 -0.5622,0.41267 0.6057,0.4482 1.0567,0.0319 1.6489,-0.14313 1.3158,-0.38965 z m 5.5534,-0.78034 c -0.6786,-0.20322 -2.032,-0.21561 -3.0074,-0.0275 -0.9753,0.18816 -0.4201,0.35442 1.2341,0.36956 1.6541,0.0149 2.4521,-0.13881 1.7733,-0.34203 z m 4.4712,-0.7035 c -0.3331,-0.24655 -1.1977,-0.27288 -1.9214,-0.0585 -0.7998,0.23683 -0.5623,0.41266 0.6057,0.4482 1.0566,0.0319 1.6488,-0.14312 1.3157,-0.38966 z m 4.9267,-0.88289 c -1.0234,-0.16055 -2.2982,0.0319 -2.8328,0.4275 -0.6277,0.46452 0.031,0.56794 1.8608,0.29194 2.0981,-0.31665 2.3501,-0.50317 0.972,-0.71944 z m 12.2015,-0.92192 c 4.0333,-0.4758 7.1392,-1.00879 6.9019,-1.18441 -0.6953,-0.51459 -15.141,1.35528 -16.2401,2.10225 -0.6374,0.43306 -0.4549,0.54753 0.5012,0.31427 0.827,-0.20187 4.8037,-0.75625 8.837,-1.23211 z m 12.9666,-1.96803 c -0.9649,-0.18658 -2.5438,-0.18658 -3.5086,0 -0.9649,0.18667 -0.1755,0.33936 1.7543,0.33936 1.9297,0 2.7191,-0.15269 1.7543,-0.33936 z m 91.4748,-14.32699 c 0.827,-0.39559 1.0526,-0.71922 0.5013,-0.71922 -0.5514,0 -1.6791,0.32363 -2.5063,0.71922 -0.827,0.39552 -1.0525,0.71914 -0.5011,0.71914 0.5513,0 1.679,-0.32362 2.5061,-0.71914 z m 15.0369,-3.0016 c 1.0983,-0.55 0.6927,-0.61884 -1.5036,-0.25523 -3.686,0.61016 -4.4862,1.03485 -1.9214,1.01964 1.0568,-0.006 2.598,-0.3502 3.425,-0.76441 z M 128.5233,481.38814 c 0.82704,-0.39559 2.40592,-0.7009 3.50863,-0.67841 l 2.00493,0.0407 -2.00493,0.63761 c -1.10271,0.35071 -2.68159,0.65601 -3.50863,0.67841 -1.33661,0.0363 -1.33661,-0.0393 0,-0.67841 z M 88.055746,464.36396 c 1.08157,-0.72123 10.48544,-2.44524 11.05172,-2.02612 0.22781,0.16856 -2.36142,0.82398 -5.753865,1.45647 -3.392442,0.63248 -5.776469,0.88882 -5.297855,0.56965 z m 226.705634,-2.33862 c 1.219,-0.96013 4.43239,-1.48941 24.27938,-3.99912 4.68652,-0.59258 12.12982,-1.78611 16.54066,-2.65223 4.41085,-0.86619 9.5986,-1.87188 11.52834,-2.23489 1.92975,-0.36302 15.0119,-2.16961 29.07147,-4.01464 14.05955,-1.84501 27.81837,-3.74798 30.57515,-4.22881 4.43539,-0.77368 4.72386,-0.93564 2.50616,-1.40699 -2.0463,-0.43491 -1.67841,-0.56363 2.00493,-0.70135 6.00528,-0.2245 5.41527,-0.16159 30.07392,-3.20539 41.08449,-5.07128 57.17316,-6.17689 103.755,-7.13011 20.95151,-0.42877 52.98024,-0.77665 71.17496,-0.77309 35.29696,0.006 63.11304,0.77983 54.13306,1.50425 -4.3127,0.34782 -3.54311,0.48499 5.51355,0.98283 5.78923,0.3182 18.64583,0.84008 28.57023,1.15977 l 18.04435,0.5813 -15.03696,0.1391 c -39.10633,0.36185 -80.35361,1.86736 -132.82649,4.84812 -10.75144,0.61073 -35.11131,1.78595 -54.13303,2.61157 -64.33422,2.79237 -89.74039,4.40502 -123.80432,7.8586 -58.22721,5.90326 -78.3191,8.15463 -99.74519,11.17701 -2.93635,0.41422 -3.29928,0.33008 -2.22517,-0.51593 z m -213.55522,-0.41859 c 0.6892,-0.20582 1.81697,-0.20582 2.50616,0 0.68919,0.2058 0.1253,0.37422 -1.25308,0.37422 -1.37839,0 -1.94228,-0.16842 -1.25308,-0.37422 z m 381.45209,0.091 c 1.0604,-0.84461 10.762,-1.70145 10.762,-0.95056 0,0.33491 -0.78945,0.61262 -1.75432,0.61714 -0.96487,0.006 -3.55875,0.21865 -5.76417,0.47593 -2.20542,0.25732 -3.665,0.19314 -3.24351,-0.14251 z m 359.11824,-1.21008 c -20.35283,-1.12216 -109.31912,-3.11459 -181.44601,-4.06351 -40.51729,-0.533 -102.12603,0.58344 -132.82646,2.40709 -10.20007,0.60586 -21.9289,1.2471 -26.06407,1.42494 l -7.51848,0.32333 7.51848,-1.02659 c 4.13517,-0.56469 10.49809,-1.54321 14.13982,-2.17451 5.34655,-0.92689 34.5394,-3.65576 55.53141,-5.19102 5.08249,-0.37171 -20.02155,0.28704 -36.58991,0.96012 -6.89194,0.28 -24.25963,0.5356 -38.59487,0.56795 -20.89466,0.0475 -23.97641,-0.0608 -15.5382,-0.54584 36.11971,-2.07509 57.21107,-3.58609 77.69095,-5.56606 9.88579,-0.95575 9.92529,-0.9674 2.84919,-0.84209 -9.47003,0.16775 -8.52285,-0.65496 1.3806,-1.19924 4.28995,-0.23579 15.46863,-1.10028 24.84166,-1.92114 42.81665,-3.74991 62.58304,-4.5089 138.84129,-5.33139 36.66512,-0.39552 69.82162,-0.87005 73.68111,-1.05458 3.85949,-0.18451 23.93383,-0.84268 44.60965,-1.46255 20.67582,-0.61987 42.5546,-1.31202 48.61951,-1.53808 20.74098,-0.77309 62.14706,-2.56988 67.1651,-2.9145 2.75677,-0.18933 9.74896,-0.54376 15.53819,-0.78771 17.56206,-0.73984 59.55725,-3.3083 78.69345,-4.81301 27.1191,-2.13236 111.7319,-9.91944 111.2951,-10.24278 -0.2098,-0.15528 -10.2249,0.11027 -22.2558,0.59006 -12.0309,0.4798 -26.8365,0.76233 -32.9014,0.62781 l -11.027,-0.24461 12.5307,-0.96628 c 33.1791,-2.5583 72.622,-6.46914 98.7427,-9.79027 6.0649,-0.77117 21.4027,-2.60936 34.0838,-4.08483 12.6812,-1.47546 30.2744,-3.65969 39.0961,-4.85388 29.2275,-3.95653 59.0885,-8.14913 63.1553,-8.86726 2.2054,-0.3895 4.912,-0.70549 6.0147,-0.70223 l 2.0049,0.006 -2.0049,1.12513 c -1.8597,1.04366 -1.6781,1.09121 2.5062,0.65749 2.4811,-0.25723 6.9558,-0.77324 9.9438,-1.14679 2.9879,-0.37349 5.5871,-0.56476 5.7758,-0.42505 0.3474,0.257 -9.557,2.1176 -26.4961,4.97742 -5.1,0.86107 -9.2728,1.72557 -9.2728,1.92107 0,0.3458 10.4916,-0.21909 16.5407,-0.89061 4.758,-0.52817 0,0.83659 -6.0148,1.72467 -2.7568,0.40717 -15.6133,2.41058 -28.5703,4.45207 -12.9568,2.04155 -29.1967,4.44546 -36.0886,5.34207 -6.8919,0.89662 -17.0419,2.43062 -22.5555,3.40892 -5.5135,0.9783 -18.5957,2.95338 -29.0714,4.38908 -20.0977,2.75438 -17.2384,2.86116 8.5209,0.31835 19.4978,-1.92477 34.8137,-3.92662 67.1119,-8.77198 14.0302,-2.10477 26.2102,-3.72002 27.0665,-3.58937 0.8563,0.13066 -9.0441,1.82819 -22.001,3.77232 -30.7584,4.61507 -43.1007,6.69445 -43.1036,7.26195 0,0.25374 5.7494,0.38551 12.7791,0.29269 13.9268,-0.18377 13.2649,0.006 -9.044,2.58493 -7.5931,0.878 -14.3597,1.45618 -15.037,1.2848 -0.6772,-0.17138 1.4007,-0.55815 4.6173,-0.85959 3.2167,-0.30137 5.6371,-0.70453 5.3785,-0.89587 -0.5258,-0.38914 -17.5158,1.33345 -34.2837,3.47599 -12.1363,1.55068 -28.5039,3.29161 -38.5949,4.10499 -3.5838,0.2889 -5.9445,0.67314 -5.246,0.85388 0.6985,0.18073 8.1419,-0.19454 16.5407,-0.834 8.3989,-0.63947 21.3606,-1.5136 28.8039,-1.94265 12.1126,-0.69817 56.3744,-4.64207 74.6905,-6.65528 3.8557,-0.42387 10.3283,-1.09798 14.3835,-1.4981 8.0118,-0.79052 37.0861,-4.93996 54.9003,-7.83538 6.1313,-0.99648 11.7701,-1.79072 12.5308,-1.76482 1.7076,0.0579 -2.3557,1.30036 -5.9778,1.82766 -1.4651,0.2133 -9.6561,1.51938 -18.2021,2.90248 -25.2109,4.08021 -14.7854,3.22996 21.553,-1.75761 13.7909,-1.89281 59.1759,-10.01325 75.1848,-13.45228 1.6541,-0.3553 6.3577,-1.20851 10.4526,-1.89606 4.0948,-0.68754 8.6058,-1.69834 10.0247,-2.24625 1.4187,-0.54792 3.4837,-0.99826 4.589,-1.00078 1.1053,0 6.293,-1.02297 11.5284,-2.26754 8.2312,-1.95691 18.0418,-3.73322 27.0618,-4.89989 3.2162,-0.41592 -29.6466,8.27994 -46.3753,12.27157 -7.0361,1.67882 -13.3782,3.05243 -14.0935,3.05243 -0.7155,0 -2.1764,0.52556 -3.2467,1.16793 -1.0702,0.64228 -1.382,0.95649 -0.6928,0.69808 0.6891,-0.25834 1.2499,-0.19966 1.2459,0.1305 -0.011,0.56134 -9.7526,3.0516 -20.0421,5.12113 -23.4002,4.7064 -53.6086,10.33901 -67.1652,12.52338 -9.0973,1.4659 -21.2773,3.47607 -27.0665,4.46713 -16.5757,2.83756 -67.7491,10.23224 -85.2094,12.31305 -11.6263,1.38553 -6.8257,1.59083 7.6064,0.32525 58.7175,-5.14903 59.8216,-5.21973 59.526,-3.81379 -0.076,0.36244 0.3605,0.88728 0.9704,1.16623 0.61,0.27896 -5.3287,1.57749 -13.197,2.88549 -17.0351,2.83193 -31.8857,4.78363 -32.5662,4.27995 -0.2696,-0.19959 1.1347,-0.58843 3.1208,-0.8642 5.2327,-0.72656 4.4324,-1.64975 -1.1507,-1.32723 -2.6188,0.15135 -16.0394,0.76307 -29.8232,1.3595 -15.1677,0.65623 -32.9768,1.95721 -45.1109,3.29525 -17.7004,1.95194 -75.2066,7.34907 -103.2538,9.69072 -11.7977,0.98499 -32.7885,3.6102 -33.5515,4.19618 -0.2928,0.2248 4.2043,0.20944 9.9935,-0.0341 11.2143,-0.47188 25.7114,-0.91903 51.6269,-1.59226 15.9428,-0.41414 48.8061,-1.87854 74.6837,-3.3279 23.4426,-1.31299 25.5993,-1.41106 24.0591,-1.09411 -1.5657,0.32222 -30.1259,2.92615 -40.5998,3.7016 -3.3082,0.24493 -7.5937,0.58858 -9.5235,0.76367 -6.8042,0.61743 -38.979,2.58472 -72.1774,4.41333 -18.4703,1.01734 -39.014,2.19937 -45.6524,2.62663 -40.6152,2.6144 -195.37907,4.55031 -226.51651,2.83341 z m -256.21309,-9.0491 c -0.22976,-0.14987 -2.22215,-0.49613 -4.42758,-0.76945 -2.87306,-0.35605 -3.58351,-0.28201 -2.50616,0.26116 1.35242,0.68183 7.93982,1.16474 6.93374,0.50829 z m -12.69791,-0.96071 c -0.68919,-0.20582 -1.81697,-0.20582 -2.50616,0 -0.68919,0.2058 -0.12531,0.37423 1.25309,0.37423 1.37838,0 1.94226,-0.16843 1.25307,-0.37423 z m 19.79866,-0.7009 c 0,-0.16041 -0.67665,-0.29158 -1.50369,-0.29158 -0.82703,0 -1.5037,0.32332 -1.5037,0.71863 0,0.39523 0.67667,0.52647 1.5037,0.29158 0.82704,-0.2349 1.50369,-0.5583 1.50369,-0.71863 z m 11.94607,-0.0252 c 0.22976,-0.14631 -2.25133,-0.24254 -5.51355,-0.21382 -4.04184,0.0356 -5.29261,0.24224 -3.92635,0.64895 1.80183,0.53635 8.39112,0.23261 9.4399,-0.43513 z m 604.81988,-34.14394 c -0.6891,-0.20581 -1.8169,-0.20581 -2.5061,0 -0.6892,0.20581 -0.1253,0.37423 1.2531,0.37423 1.3784,0 1.9423,-0.16842 1.253,-0.37423 z m -39.6181,-0.69878 c -0.3331,-0.24655 -1.1978,-0.27288 -1.9215,-0.0586 -0.7996,0.23683 -0.5622,0.41266 0.6057,0.4482 1.0567,0.0319 1.6489,-0.14312 1.3158,-0.38966 z m 102.7734,-1.52696 c -0.6892,-0.20581 -1.817,-0.20581 -2.5061,0 -0.6893,0.20581 -0.1254,0.37423 1.2531,0.37423 1.3784,0 1.9422,-0.16842 1.253,-0.37423 z m 47.5962,-16.27922 c -0.3331,-0.24654 -1.1978,-0.27288 -1.9215,-0.0585 -0.7996,0.23682 -0.5621,0.41266 0.6057,0.4482 1.0567,0.0319 1.6489,-0.14312 1.3158,-0.38965 z m 9.7949,-1.35454 c 2.7567,-0.56771 4.1101,-1.05568 3.0074,-1.08424 -1.1027,-0.0289 -4.2606,0.41243 -7.0173,0.98016 -2.7568,0.56771 -4.1101,1.05568 -3.0073,1.08425 1.1027,0.0289 4.2604,-0.41244 7.0172,-0.98017 z M 110.29099,460.10776 c 0.72365,-0.21427 1.58827,-0.18793 1.92139,0.0585 0.33311,0.24655 -0.25898,0.42194 -1.31573,0.38974 -1.16782,-0.0357 -1.40536,-0.21146 -0.60566,-0.44828 z m 4.00985,-0.74192 c 0.72365,-0.21427 1.58828,-0.18793 1.92139,0.0585 0.33312,0.24654 -0.25897,0.42194 -1.31572,0.38973 -1.16783,-0.0357 -1.40536,-0.21145 -0.60567,-0.44827 z m 5.20029,-0.97697 c 1.37839,-0.32674 3.18282,-0.62224 4.00986,-0.65667 1.33661,-0.0556 1.33661,0.017 0,0.65667 -0.82704,0.39552 -2.63147,0.69103 -4.00986,0.65661 l -2.50617,-0.0623 z m 15.03696,-2.22577 c 1.37839,-0.32674 3.40838,-0.59406 4.51108,-0.59406 1.58758,0 1.48324,0.12368 -0.50122,0.59406 -1.3784,0.32667 -3.40838,0.59398 -4.51109,0.59398 -1.58758,0 -1.48323,-0.12367 0.50123,-0.59398 z m 303.99724,-2.01529 c 1.51623,-0.16998 3.99732,-0.16998 5.51356,0 1.51622,0.16998 0.27567,0.30908 -2.75678,0.30908 -3.03246,0 -4.27301,-0.1391 -2.75678,-0.30908 z m 17.04189,-0.74191 c 1.51623,-0.16999 3.99733,-0.16999 5.51355,0 1.51623,0.16997 0.27568,0.30907 -2.75678,0.30907 -3.03244,0 -4.273,-0.1391 -2.75677,-0.30907 z m 29.07146,-2.20583 c 0.96487,-0.18658 2.54375,-0.18658 3.50863,0 0.96487,0.18667 0.17543,0.33937 -1.75432,0.33937 -1.92974,0 -2.71918,-0.1527 -1.75431,-0.33937 z m -127.29386,-0.74459 c 0.97536,-0.18815 2.32869,-0.17577 3.00739,0.0275 0.6787,0.20322 -0.11932,0.35708 -1.77339,0.34203 -1.65407,-0.0149 -2.20938,-0.18141 -1.234,-0.36954 z m 146.34068,0 c 0.96487,-0.18668 2.54375,-0.18668 3.50863,0 0.96487,0.18659 0.17543,0.33927 -1.75432,0.33927 -1.92974,0 -2.71918,-0.15268 -1.75431,-0.33927 z m -137.77616,-0.73732 c 0.72364,-0.21435 1.58828,-0.18801 1.92139,0.0585 0.33311,0.24652 -0.25897,0.42184 -1.31573,0.38965 -1.16783,-0.0356 -1.40536,-0.21138 -0.60566,-0.44827 z m 159.83037,-0.74682 c 0.96487,-0.1866 2.54375,-0.1866 3.50863,0 0.96487,0.18667 0.17543,0.33935 -1.75432,0.33935 -1.92974,0 -2.71918,-0.15268 -1.75431,-0.33935 z m 8.53263,-0.75521 c 1.24698,-0.17747 3.05142,-0.17071 4.00986,0.0148 0.95845,0.18571 -0.0618,0.3309 -2.26723,0.32266 -2.20543,-0.008 -2.9896,-0.16017 -1.74263,-0.33765 z m 8.52834,-0.73132 c 0.97536,-0.18815 2.32869,-0.17576 3.00739,0.0275 0.6787,0.20321 -0.11932,0.35709 -1.77339,0.34202 -1.65406,-0.0149 -2.20938,-0.1814 -1.234,-0.36955 z m -147.88254,-0.71915 c 0.68919,-0.2058 1.81697,-0.2058 2.50616,0 0.68919,0.20582 0.12531,0.37423 -1.25307,0.37423 -1.3784,0 -1.94228,-0.16841 -1.25309,-0.37423 z m 154.37947,0 c 0.6892,-0.2058 1.81697,-0.2058 2.50616,0 0.6892,0.20582 0.12531,0.37423 -1.25307,0.37423 -1.3784,0 -1.94228,-0.16841 -1.25309,-0.37423 z m -147.84437,-0.7647 c 0.97536,-0.18815 2.32869,-0.17576 3.00739,0.0275 0.6787,0.20321 -0.11932,0.35709 -1.77339,0.34203 -1.65406,-0.0149 -2.20938,-0.18141 -1.234,-0.36955 z m 7.56205,-0.73465 c 0.72365,-0.21426 1.58828,-0.18793 1.9214,0.0585 0.33311,0.24654 -0.25898,0.42193 -1.31573,0.38973 -1.16783,-0.0357 -1.40536,-0.21144 -0.60567,-0.44826 z m 4.94967,-0.72641 c 0.68919,-0.20582 1.81696,-0.20582 2.50616,0 0.68919,0.2058 0.12531,0.37422 -1.25308,0.37422 -1.37839,0 -1.94227,-0.16842 -1.25308,-0.37422 z m 7.02894,-0.77531 c 1.24697,-0.17747 3.05141,-0.17072 4.00985,0.0149 0.95845,0.1857 -0.0618,0.3309 -2.26722,0.32266 -2.20543,-0.008 -2.98961,-0.16017 -1.74263,-0.33765 z m -268.15176,-7.40864 c 0.97536,-0.18816 2.32869,-0.17576 3.00739,0.0275 0.6787,0.20321 -0.11933,0.35709 -1.77339,0.34202 -1.65406,-0.0148 -2.20938,-0.1814 -1.234,-0.36954 z m 5.55713,-0.73464 c 0.72364,-0.21428 1.58827,-0.18794 1.92138,0.0585 0.33312,0.24654 -0.25897,0.42194 -1.31572,0.38973 -1.16783,-0.0357 -1.40536,-0.21144 -0.60566,-0.44826 z m 588.4464,0 c 0.72368,-0.21428 1.5883,-0.18794 1.92143,0.0585 0.33311,0.24654 -0.25895,0.42194 -1.31574,0.38973 -1.16777,-0.0357 -1.40536,-0.21144 -0.60569,-0.44826 z M 162.87678,434.8721 c 0.97536,-0.18814 2.32869,-0.17575 3.00739,0.0275 0.6787,0.2032 -0.11932,0.35709 -1.77339,0.34203 -1.65406,-0.0149 -2.20937,-0.18141 -1.234,-0.36956 z m 10.75741,-1.39452 c 3.58381,-0.54434 8.0949,-0.96331 10.02464,-0.93103 2.24581,0.0378 0.80259,0.40894 -4.00985,1.03172 -9.76663,1.26378 -14.47822,1.185 -6.01479,-0.10069 z m 1137.91771,0.82993 c 0.7134,-0.52812 42.4059,-7.82708 44.5647,-7.80179 3.8477,0.0453 -0.95,1.25468 -14.1106,3.55791 -20.843,3.64773 -31.6913,5.1594 -30.4541,4.24388 z M 189.423,431.92719 c 0.6892,-0.20581 1.81697,-0.20581 2.50616,0 0.68919,0.20581 0.12531,0.37422 -1.25308,0.37422 -1.37839,0 -1.94228,-0.16841 -1.25308,-0.37422 z m 5.53263,-0.76471 c 0.97536,-0.18815 2.32869,-0.17576 3.00739,0.0275 0.6787,0.20321 -0.11932,0.35709 -1.77339,0.34202 -1.65406,-0.0149 -2.20937,-0.1814 -1.234,-0.36955 z m 7.56206,-0.73464 c 0.72364,-0.21427 1.58827,-0.18794 1.92139,0.0585 0.33311,0.24653 -0.25897,0.42193 -1.31573,0.38973 -1.16783,-0.0357 -1.40536,-0.21145 -0.60566,-0.44827 z m 5.4509,-0.74653 c 0.96487,-0.18659 2.54374,-0.18659 3.50862,0 0.96487,0.18667 0.17543,0.33936 -1.75432,0.33936 -1.92973,0 -2.71917,-0.15269 -1.7543,-0.33936 z m 9.27279,-1.01495 c 2.20542,-0.33766 5.13762,-0.59361 6.51602,-0.56884 2.28331,0.0408 2.23875,0.0955 -0.50124,0.61142 -1.65406,0.31147 -4.58627,0.56742 -6.51601,0.56876 h -3.50863 l 4.00986,-0.61379 z m 22.55544,-2.59429 c 7.4433,-0.98082 14.43548,-1.75287 15.53819,-1.71577 3.55084,0.11945 -22.70012,3.62675 -26.5653,3.54922 -1.37838,-0.0275 3.58381,-0.8527 11.02711,-1.83345 z m 19.79867,-2.30605 c 0.68919,-0.20581 1.81696,-0.20581 2.50616,0 0.68919,0.20581 0.12531,0.37423 -1.25308,0.37423 -1.37839,0 -1.94227,-0.16842 -1.25308,-0.37423 z m 347.85502,-0.0319 c 1.24054,-0.17688 3.27053,-0.17688 4.51109,0 1.24054,0.17679 0.22554,0.32147 -2.25555,0.32147 -2.4811,0 -3.4961,-0.14468 -2.25554,-0.32147 z m -342.3224,-0.73251 c 0.97538,-0.18808 2.3287,-0.17576 3.00739,0.0275 0.6787,0.20321 -0.11932,0.35716 -1.77338,0.34202 -1.65407,-0.0148 -2.20937,-0.1814 -1.23401,-0.36948 z m 978.89879,-5.946 c 1.247,-0.1774 3.0514,-0.17072 4.0099,0.0149 0.9584,0.18571 -0.062,0.3309 -2.2673,0.32267 -2.2054,-0.008 -2.9896,-0.16012 -1.7426,-0.33759 z m -282.45595,-1.99262 c 0,-0.16033 0.67666,-0.48372 1.5037,-0.71863 0.82703,-0.23489 1.5037,-0.10364 1.5037,0.29158 0,0.3953 -0.67667,0.7187 -1.5037,0.7187 -0.82704,0 -1.5037,-0.13124 -1.5037,-0.29165 z m 9.77403,-0.94165 c 0.68919,-0.2058 1.81697,-0.2058 2.50616,0 0.68919,0.20582 0.1253,0.37423 -1.25309,0.37423 -1.37838,0 -1.94227,-0.16841 -1.25307,-0.37423 z m 9.61112,-1.13454 c 2.01857,-0.54414 3.16839,-0.52715 3.95973,0.0585 0.81872,0.60592 0.0621,0.80982 -2.84449,0.76686 -3.91573,-0.0579 -3.92816,-0.0667 -1.11524,-0.8254 z m 314.9366,-2.0837 c 1.654,-0.31153 4.1351,-0.56638 5.5135,-0.56638 2.2356,0 2.1814,0.0608 -0.5012,0.56638 -1.6541,0.31146 -4.1351,0.56632 -5.5135,0.56632 -2.2355,0 -2.1814,-0.0609 0.5012,-0.56632 z m 11.3404,-1.24881 c 0.7237,-0.21427 1.5882,-0.18793 1.9214,0.0585 0.3331,0.24655 -0.259,0.42194 -1.3157,0.38974 -1.1679,-0.0357 -1.4054,-0.21146 -0.6057,-0.44828 z m 3.9472,-0.72641 c 0.6892,-0.20581 1.8169,-0.20581 2.5061,0 0.6892,0.20581 0.1254,0.37423 -1.253,0.37423 -1.3784,0 -1.9423,-0.16842 -1.2531,-0.37423 z m 123.0524,-0.25055 c 1.1028,-0.35071 2.6816,-0.63768 3.5086,-0.63768 0.9478,0 0.7626,0.23571 -0.5011,0.63768 -1.1028,0.35063 -2.6816,0.6376 -3.5087,0.6376 -0.9479,0 -0.7625,-0.2357 0.5012,-0.6376 z m -118.0401,-0.49137 c 0.6892,-0.20581 1.817,-0.20581 2.5061,0 0.6893,0.20581 0.1253,0.37422 -1.2531,0.37422 -1.3784,0 -1.9422,-0.16841 -1.253,-0.37422 z m 6.0774,-0.75743 c 0.7237,-0.21427 1.5883,-0.18794 1.9214,0.0585 0.3331,0.24653 -0.259,0.42193 -1.3157,0.38972 -1.1678,-0.0357 -1.4053,-0.21144 -0.6057,-0.44826 z m 70.1725,-5.9354 c 0.7237,-0.21427 1.5884,-0.18793 1.9214,0.0585 0.3331,0.24653 -0.259,0.42193 -1.3157,0.38973 -1.1679,-0.0357 -1.4054,-0.21145 -0.6057,-0.44827 z m -57.2031,-1.46834 c 0.6892,-0.20582 1.8169,-0.20582 2.5062,0 0.6891,0.2058 0.1253,0.37423 -1.2531,0.37423 -1.3784,0 -1.9423,-0.16843 -1.2531,-0.37423 z m 5.7641,-0.99247 c 1.1028,-0.35071 3.1327,-0.62782 4.5111,-0.61587 l 2.5062,0.0216 -2.5062,0.59405 c -1.3784,0.32667 -3.4083,0.60378 -4.5111,0.61579 l -2.0049,0.0216 z m 10.338,-1.24881 c 0.7237,-0.21427 1.5883,-0.18793 1.9214,0.0585 0.3331,0.24654 -0.259,0.42194 -1.3157,0.38973 -1.1679,-0.0357 -1.4054,-0.21145 -0.6057,-0.44827 z m 7.4748,-1.49112 c 0.9754,-0.18816 2.3288,-0.17576 3.0074,0.0275 0.6788,0.2032 -0.1192,0.35709 -1.7733,0.34202 -1.6541,-0.0148 -2.2094,-0.1814 -1.2341,-0.36956 z m 66.8955,-7.31448 c 2.4811,-0.57855 5.1878,-1.02199 6.0148,-0.98543 2.0688,0.0916 -6.0294,2.02086 -8.5209,2.03005 -1.1027,0.006 0.025,-0.46599 2.5061,-1.04462 z m 9.5234,-1.81637 c 1.1027,-0.35071 2.6816,-0.63769 3.5086,-0.63769 0.9478,0 0.7625,0.2357 -0.5012,0.63769 -1.1027,0.35062 -2.6816,0.6376 -3.5087,0.6376 -0.9478,0 -0.7624,-0.23572 0.5013,-0.6376 z m 12.5309,-2.66611 c 4.1351,-0.97741 7.9694,-1.7459 8.5208,-1.70776 0.5514,0.0378 -2.3809,0.86909 -6.516,1.84642 -4.1352,0.97741 -7.9696,1.74591 -8.521,1.70776 -0.5513,-0.0378 2.3809,-0.86909 6.5162,-1.84642 z m 14.5356,-3.26929 c 2.7568,-0.75291 5.689,-1.36885 6.516,-1.36885 0.8271,0 -0.7518,0.61594 -3.5086,1.36885 -2.7567,0.75283 -5.6889,1.36878 -6.516,1.36878 -0.827,0 0.7519,-0.61595 3.5086,-1.36878 z m 8.521,-1.80222 c 0,-0.36776 10.4128,-2.67797 11.6826,-2.59183 1.0994,0.0746 -8.7811,2.77703 -10.4295,2.8527 -0.6892,0.0319 -1.2531,-0.0857 -1.2531,-0.26087 z m 16.8539,-3.89813 c 0.7237,-0.21427 1.5883,-0.18794 1.9214,0.0585 0.3331,0.24655 -0.259,0.42193 -1.3157,0.38973 -1.1678,-0.0356 -1.4053,-0.21144 -0.6057,-0.44826 z m 10.5084,-2.53895 c 2.615,-1.12615 16.0084,-4.42482 16.4971,-4.06314 0.2282,0.16893 -2.3429,1.05131 -5.7135,1.96091 -3.3708,0.90961 -6.367,1.93923 -6.6582,2.28801 -0.2913,0.34886 -1.7436,0.62411 -3.2272,0.61165 -2.3598,-0.02 -2.4724,-0.1196 -0.8982,-0.79743 z m 14.7412,-2.14764 c 0.827,-0.3956 1.9547,-0.71921 2.5061,-0.71921 0.5513,0 0.3258,0.32361 -0.5012,0.71921 -0.827,0.39552 -1.9548,0.71915 -2.5061,0.71915 -0.5514,0 -0.3259,-0.32363 0.5012,-0.71915 z m 7.0173,-1.93241 c 3.0428,-0.98209 9.7939,-2.76923 16.5406,-4.37869 5.8644,-1.39897 -2.2686,1.35913 -9.8398,3.33687 -9.1235,2.3833 -12.4689,2.90338 -6.7008,1.04182 z m -1.0025,-1.77721 c 0.827,-0.39559 1.9548,-0.71922 2.5061,-0.71922 0.5514,0 0.3259,0.32363 -0.5012,0.71922 -0.827,0.39552 -1.9548,0.71915 -2.5062,0.71915 -0.5514,0 -0.3257,-0.32363 0.5013,-0.71915 z m 4.0098,-0.94276 c 1.1537,-0.8866 13.3145,-4.30464 14.379,-4.04164 0.6376,0.15759 -1.3219,0.96703 -4.3543,1.79887 -6.9487,1.90616 -10.6701,2.73866 -10.0247,2.24277 z m -46.1133,-20.8566 c 0,-0.45249 17.202,-4.29685 17.6715,-3.94934 0.2334,0.17273 -3.1804,1.19577 -7.5861,2.27349 -7.7145,1.88701 -10.0854,2.28097 -10.0854,1.67585 z"
       id="path541"
       sodipodi:nodetypes="ccscssssssssssscssscssssscssssssssssscscssccscsssssscsssssssssscssscccccssssssssssssssssssssssssssssssssssssscssssssssssssscssssscssscsssssssssscsssssssssscssssssssssssssscssscssssscssscssssssscssssssssssssssssssssssscssscsscsssscsssscssscsssssssccssssssssscssssssssssssssssssssssssssssssscsssscsssssssssssscsssssssssssssssssssssssssssssssssssssscccssccsssssssssssssscssscsssssssssssscsscssscssssccssscsssssssssscsssssscsssssssssssssssscsssssssssssssssssssscsssssscsssssssssssssssssssssscccssssssssssssssssssssssscsssssssssssscscssccsssscsscsccccssssssssssssssssssscsssssscssccsssscccccsscsssssssssssscssssssssssssscsssscsssscssssssssscsssccssssssssssscsssscssssssccsccccsscssssssssssscssssssssssssssssssssssscsssssssssssssssssssssssssssssssssscscssccsssssssssssscssssssscscsssssssssssssssssssssssssssssssssssssssssss" />
  </g>
</svg>
